<svg id="Layer_1" data-name="Layer 1" xmlns="http://www.w3.org/2000/svg" viewBox="0 0 247.34 71.15"><defs><style>.cls-1{fill:#fff;}</style></defs><path class="cls-1" d="M24.14,76.36,1.92,5.21h13L29.05,52.67,43.24,5.21H56.18L34,76.36Z" transform="translate(-1.92 -5.21)"/><path class="cls-1" d="M76.57,5.21V76.36h-13V5.21Z" transform="translate(-1.92 -5.21)"/><path class="cls-1" d="M90.34,76.36V5.21h12.58V76.36Zm5.74-27.6V35.84h21.34a7,7,0,0,0,5.51-2.42A9.38,9.38,0,0,0,125,27,9.53,9.53,0,0,0,123,20.55a6.92,6.92,0,0,0-5.53-2.43H96.08V5.21h21a21.72,21.72,0,0,1,11,2.71,18.83,18.83,0,0,1,7.32,7.61A24,24,0,0,1,138.08,27a23.86,23.86,0,0,1-2.62,11.45,18.7,18.7,0,0,1-7.34,7.59,21.94,21.94,0,0,1-11,2.69Z" transform="translate(-1.92 -5.21)"/><path class="cls-1" d="M160.07,5.21V76.36H147V5.21Z" transform="translate(-1.92 -5.21)"/><path class="cls-1" d="M173.84,76.31V5.21h15.38l24.83,54.51L213,61V5.21h12v71.1H209.51L184.76,22.63l1.11-1.28v55Z" transform="translate(-1.92 -5.21)"/><path class="cls-1" d="M236.68,76.36V63h12.58V76.36Z" transform="translate(-1.92 -5.21)"/></svg>